<mxfile host="Electron" modified="2023-06-28T20:36:59.489Z" agent="Mozilla/5.0 (Macintosh; Intel Mac OS X 10_15_7) AppleWebKit/537.36 (KHTML, like Gecko) draw.io/21.5.0 Chrome/112.0.5615.204 Electron/24.5.1 Safari/537.36" etag="JbOMJExz4_5QQXJBFNx2" version="21.5.0" type="device">
  <diagram name="Page-1" id="jTj72anS60kEnWae4B0F">
    <mxGraphModel dx="1122" dy="693" grid="1" gridSize="10" guides="1" tooltips="1" connect="1" arrows="1" fold="1" page="1" pageScale="1" pageWidth="850" pageHeight="1100" math="0" shadow="0">
      <root>
        <mxCell id="0" />
        <mxCell id="1" parent="0" />
        <mxCell id="glbEuImwPsWrHvxgKssv-3" style="edgeStyle=orthogonalEdgeStyle;rounded=0;orthogonalLoop=1;jettySize=auto;html=1;" edge="1" parent="1" source="glbEuImwPsWrHvxgKssv-1" target="glbEuImwPsWrHvxgKssv-2">
          <mxGeometry relative="1" as="geometry" />
        </mxCell>
        <mxCell id="glbEuImwPsWrHvxgKssv-1" value="" style="outlineConnect=0;dashed=0;verticalLabelPosition=bottom;verticalAlign=top;align=center;html=1;shape=mxgraph.aws3.aws_iot;fillColor=#5294CF;gradientColor=none;" vertex="1" parent="1">
          <mxGeometry x="200" y="151" width="67.5" height="81" as="geometry" />
        </mxCell>
        <mxCell id="glbEuImwPsWrHvxgKssv-9" style="edgeStyle=orthogonalEdgeStyle;rounded=0;orthogonalLoop=1;jettySize=auto;html=1;" edge="1" parent="1" source="glbEuImwPsWrHvxgKssv-2" target="glbEuImwPsWrHvxgKssv-8">
          <mxGeometry relative="1" as="geometry" />
        </mxCell>
        <mxCell id="glbEuImwPsWrHvxgKssv-2" value="" style="outlineConnect=0;dashed=0;verticalLabelPosition=bottom;verticalAlign=top;align=center;html=1;shape=mxgraph.aws3.rule;fillColor=#5294CF;gradientColor=none;rotation=90;" vertex="1" parent="1">
          <mxGeometry x="376" y="142" width="49.5" height="99" as="geometry" />
        </mxCell>
        <mxCell id="glbEuImwPsWrHvxgKssv-6" style="edgeStyle=orthogonalEdgeStyle;rounded=0;orthogonalLoop=1;jettySize=auto;html=1;" edge="1" parent="1" source="glbEuImwPsWrHvxgKssv-4" target="glbEuImwPsWrHvxgKssv-1">
          <mxGeometry relative="1" as="geometry" />
        </mxCell>
        <mxCell id="glbEuImwPsWrHvxgKssv-4" value="" style="sketch=0;outlineConnect=0;fontColor=#232F3E;gradientColor=none;fillColor=#3F8624;strokeColor=none;dashed=0;verticalLabelPosition=bottom;verticalAlign=top;align=center;html=1;fontSize=12;fontStyle=0;aspect=fixed;pointerEvents=1;shape=mxgraph.aws4.iot_thing_relay;" vertex="1" parent="1">
          <mxGeometry x="10" y="170" width="78" height="78" as="geometry" />
        </mxCell>
        <mxCell id="glbEuImwPsWrHvxgKssv-12" style="edgeStyle=orthogonalEdgeStyle;rounded=0;orthogonalLoop=1;jettySize=auto;html=1;exitX=0.5;exitY=0;exitDx=0;exitDy=0;exitPerimeter=0;" edge="1" parent="1" source="glbEuImwPsWrHvxgKssv-7" target="glbEuImwPsWrHvxgKssv-11">
          <mxGeometry relative="1" as="geometry">
            <Array as="points">
              <mxPoint x="740" y="153" />
            </Array>
          </mxGeometry>
        </mxCell>
        <mxCell id="glbEuImwPsWrHvxgKssv-14" style="edgeStyle=orthogonalEdgeStyle;rounded=0;orthogonalLoop=1;jettySize=auto;html=1;entryX=1;entryY=0.5;entryDx=0;entryDy=0;entryPerimeter=0;" edge="1" parent="1" source="glbEuImwPsWrHvxgKssv-7" target="glbEuImwPsWrHvxgKssv-13">
          <mxGeometry relative="1" as="geometry">
            <Array as="points">
              <mxPoint x="729" y="270" />
              <mxPoint x="609" y="270" />
              <mxPoint x="609" y="322" />
            </Array>
          </mxGeometry>
        </mxCell>
        <mxCell id="glbEuImwPsWrHvxgKssv-31" style="edgeStyle=orthogonalEdgeStyle;rounded=0;orthogonalLoop=1;jettySize=auto;html=1;entryX=1;entryY=0.5;entryDx=0;entryDy=0;entryPerimeter=0;" edge="1" parent="1" source="glbEuImwPsWrHvxgKssv-7" target="glbEuImwPsWrHvxgKssv-28">
          <mxGeometry relative="1" as="geometry">
            <Array as="points">
              <mxPoint x="710" y="400" />
              <mxPoint x="499" y="400" />
              <mxPoint x="499" y="499" />
            </Array>
          </mxGeometry>
        </mxCell>
        <mxCell id="glbEuImwPsWrHvxgKssv-7" value="" style="sketch=0;points=[[0,0,0],[0.25,0,0],[0.5,0,0],[0.75,0,0],[1,0,0],[0,1,0],[0.25,1,0],[0.5,1,0],[0.75,1,0],[1,1,0],[0,0.25,0],[0,0.5,0],[0,0.75,0],[1,0.25,0],[1,0.5,0],[1,0.75,0]];outlineConnect=0;fontColor=#232F3E;gradientColor=#FF4F8B;gradientDirection=north;fillColor=#BC1356;strokeColor=#ffffff;dashed=0;verticalLabelPosition=bottom;verticalAlign=top;align=center;html=1;fontSize=12;fontStyle=0;aspect=fixed;shape=mxgraph.aws4.resourceIcon;resIcon=mxgraph.aws4.appsync;" vertex="1" parent="1">
          <mxGeometry x="690" y="152.5" width="78" height="78" as="geometry" />
        </mxCell>
        <mxCell id="glbEuImwPsWrHvxgKssv-10" style="edgeStyle=orthogonalEdgeStyle;rounded=0;orthogonalLoop=1;jettySize=auto;html=1;" edge="1" parent="1" source="glbEuImwPsWrHvxgKssv-8" target="glbEuImwPsWrHvxgKssv-7">
          <mxGeometry relative="1" as="geometry" />
        </mxCell>
        <mxCell id="glbEuImwPsWrHvxgKssv-8" value="" style="outlineConnect=0;dashed=0;verticalLabelPosition=bottom;verticalAlign=top;align=center;html=1;shape=mxgraph.aws3.lambda_function;fillColor=#F58534;gradientColor=none;" vertex="1" parent="1">
          <mxGeometry x="540" y="155.5" width="69" height="72" as="geometry" />
        </mxCell>
        <mxCell id="glbEuImwPsWrHvxgKssv-11" value="" style="outlineConnect=0;dashed=0;verticalLabelPosition=bottom;verticalAlign=top;align=center;html=1;shape=mxgraph.aws3.dynamo_db;fillColor=#2E73B8;gradientColor=none;" vertex="1" parent="1">
          <mxGeometry x="693" y="40" width="72" height="81" as="geometry" />
        </mxCell>
        <mxCell id="glbEuImwPsWrHvxgKssv-16" style="edgeStyle=orthogonalEdgeStyle;rounded=0;orthogonalLoop=1;jettySize=auto;html=1;entryX=1;entryY=0.5;entryDx=0;entryDy=0;entryPerimeter=0;" edge="1" parent="1" source="glbEuImwPsWrHvxgKssv-13" target="glbEuImwPsWrHvxgKssv-15">
          <mxGeometry relative="1" as="geometry" />
        </mxCell>
        <mxCell id="glbEuImwPsWrHvxgKssv-18" style="edgeStyle=orthogonalEdgeStyle;rounded=0;orthogonalLoop=1;jettySize=auto;html=1;entryX=0.5;entryY=0;entryDx=0;entryDy=0;entryPerimeter=0;" edge="1" parent="1" source="glbEuImwPsWrHvxgKssv-13" target="glbEuImwPsWrHvxgKssv-17">
          <mxGeometry relative="1" as="geometry">
            <Array as="points">
              <mxPoint x="489" y="280" />
              <mxPoint x="490" y="280" />
              <mxPoint x="490" y="260" />
            </Array>
          </mxGeometry>
        </mxCell>
        <mxCell id="glbEuImwPsWrHvxgKssv-13" value="" style="sketch=0;points=[[0,0,0],[0.25,0,0],[0.5,0,0],[0.75,0,0],[1,0,0],[0,1,0],[0.25,1,0],[0.5,1,0],[0.75,1,0],[1,1,0],[0,0.25,0],[0,0.5,0],[0,0.75,0],[1,0.25,0],[1,0.5,0],[1,0.75,0]];outlineConnect=0;fontColor=#232F3E;gradientColor=#945DF2;gradientDirection=north;fillColor=#5A30B5;strokeColor=#ffffff;dashed=0;verticalLabelPosition=bottom;verticalAlign=top;align=center;html=1;fontSize=12;fontStyle=0;aspect=fixed;shape=mxgraph.aws4.resourceIcon;resIcon=mxgraph.aws4.kinesis_data_firehose;" vertex="1" parent="1">
          <mxGeometry x="450" y="283" width="78" height="78" as="geometry" />
        </mxCell>
        <mxCell id="glbEuImwPsWrHvxgKssv-21" style="edgeStyle=orthogonalEdgeStyle;rounded=0;orthogonalLoop=1;jettySize=auto;html=1;entryX=0.5;entryY=0;entryDx=0;entryDy=0;entryPerimeter=0;exitX=0.5;exitY=1;exitDx=0;exitDy=0;exitPerimeter=0;" edge="1" parent="1" source="glbEuImwPsWrHvxgKssv-15" target="glbEuImwPsWrHvxgKssv-28">
          <mxGeometry relative="1" as="geometry">
            <Array as="points">
              <mxPoint x="307" y="420" />
              <mxPoint x="260" y="420" />
              <mxPoint x="260" y="440" />
            </Array>
          </mxGeometry>
        </mxCell>
        <mxCell id="glbEuImwPsWrHvxgKssv-15" value="" style="sketch=0;points=[[0,0,0],[0.25,0,0],[0.5,0,0],[0.75,0,0],[1,0,0],[0,1,0],[0.25,1,0],[0.5,1,0],[0.75,1,0],[1,1,0],[0,0.25,0],[0,0.5,0],[0,0.75,0],[1,0.25,0],[1,0.5,0],[1,0.75,0]];outlineConnect=0;fontColor=#232F3E;gradientColor=#60A337;gradientDirection=north;fillColor=#277116;strokeColor=#ffffff;dashed=0;verticalLabelPosition=bottom;verticalAlign=top;align=center;html=1;fontSize=12;fontStyle=0;aspect=fixed;shape=mxgraph.aws4.resourceIcon;resIcon=mxgraph.aws4.s3;" vertex="1" parent="1">
          <mxGeometry x="268" y="320" width="78" height="78" as="geometry" />
        </mxCell>
        <mxCell id="glbEuImwPsWrHvxgKssv-33" style="edgeStyle=orthogonalEdgeStyle;rounded=0;orthogonalLoop=1;jettySize=auto;html=1;entryX=0.5;entryY=0;entryDx=0;entryDy=0;entryPerimeter=0;" edge="1" parent="1" source="glbEuImwPsWrHvxgKssv-17" target="glbEuImwPsWrHvxgKssv-20">
          <mxGeometry relative="1" as="geometry" />
        </mxCell>
        <mxCell id="glbEuImwPsWrHvxgKssv-17" value="" style="outlineConnect=0;dashed=0;verticalLabelPosition=bottom;verticalAlign=top;align=center;html=1;shape=mxgraph.aws3.lambda;fillColor=#F58534;gradientColor=none;" vertex="1" parent="1">
          <mxGeometry x="89.5" y="260" width="76.5" height="93" as="geometry" />
        </mxCell>
        <mxCell id="glbEuImwPsWrHvxgKssv-24" style="edgeStyle=orthogonalEdgeStyle;rounded=0;orthogonalLoop=1;jettySize=auto;html=1;" edge="1" parent="1" source="glbEuImwPsWrHvxgKssv-20" target="glbEuImwPsWrHvxgKssv-23">
          <mxGeometry relative="1" as="geometry" />
        </mxCell>
        <mxCell id="glbEuImwPsWrHvxgKssv-20" value="" style="sketch=0;points=[[0,0,0],[0.25,0,0],[0.5,0,0],[0.75,0,0],[1,0,0],[0,1,0],[0.25,1,0],[0.5,1,0],[0.75,1,0],[1,1,0],[0,0.25,0],[0,0.5,0],[0,0.75,0],[1,0.25,0],[1,0.5,0],[1,0.75,0]];outlineConnect=0;fontColor=#232F3E;gradientColor=#4AB29A;gradientDirection=north;fillColor=#116D5B;strokeColor=#ffffff;dashed=0;verticalLabelPosition=bottom;verticalAlign=top;align=center;html=1;fontSize=12;fontStyle=0;aspect=fixed;shape=mxgraph.aws4.resourceIcon;resIcon=mxgraph.aws4.sagemaker;" vertex="1" parent="1">
          <mxGeometry x="88" y="398" width="78" height="78" as="geometry" />
        </mxCell>
        <mxCell id="glbEuImwPsWrHvxgKssv-26" style="edgeStyle=orthogonalEdgeStyle;rounded=0;orthogonalLoop=1;jettySize=auto;html=1;" edge="1" parent="1" source="glbEuImwPsWrHvxgKssv-23" target="glbEuImwPsWrHvxgKssv-25">
          <mxGeometry relative="1" as="geometry" />
        </mxCell>
        <mxCell id="glbEuImwPsWrHvxgKssv-23" value="" style="sketch=0;points=[[0,0,0],[0.25,0,0],[0.5,0,0],[0.75,0,0],[1,0,0],[0,1,0],[0.25,1,0],[0.5,1,0],[0.75,1,0],[1,1,0],[0,0.25,0],[0,0.5,0],[0,0.75,0],[1,0.25,0],[1,0.5,0],[1,0.75,0]];outlineConnect=0;fontColor=#232F3E;gradientColor=#FF4F8B;gradientDirection=north;fillColor=#BC1356;strokeColor=#ffffff;dashed=0;verticalLabelPosition=bottom;verticalAlign=top;align=center;html=1;fontSize=12;fontStyle=0;aspect=fixed;shape=mxgraph.aws4.resourceIcon;resIcon=mxgraph.aws4.api_gateway;" vertex="1" parent="1">
          <mxGeometry x="88" y="560" width="78" height="78" as="geometry" />
        </mxCell>
        <mxCell id="glbEuImwPsWrHvxgKssv-30" style="edgeStyle=orthogonalEdgeStyle;rounded=0;orthogonalLoop=1;jettySize=auto;html=1;entryX=1;entryY=1;entryDx=0;entryDy=0;entryPerimeter=0;" edge="1" parent="1" source="glbEuImwPsWrHvxgKssv-25" target="glbEuImwPsWrHvxgKssv-7">
          <mxGeometry relative="1" as="geometry" />
        </mxCell>
        <mxCell id="glbEuImwPsWrHvxgKssv-25" value="" style="sketch=0;outlineConnect=0;fontColor=#232F3E;gradientColor=none;fillColor=#232F3D;strokeColor=none;dashed=0;verticalLabelPosition=bottom;verticalAlign=top;align=center;html=1;fontSize=12;fontStyle=0;aspect=fixed;pointerEvents=1;shape=mxgraph.aws4.client;" vertex="1" parent="1">
          <mxGeometry x="690" y="562" width="78" height="76" as="geometry" />
        </mxCell>
        <mxCell id="glbEuImwPsWrHvxgKssv-32" style="edgeStyle=orthogonalEdgeStyle;rounded=0;orthogonalLoop=1;jettySize=auto;html=1;entryX=1;entryY=0.5;entryDx=0;entryDy=0;entryPerimeter=0;" edge="1" parent="1" source="glbEuImwPsWrHvxgKssv-28" target="glbEuImwPsWrHvxgKssv-20">
          <mxGeometry relative="1" as="geometry" />
        </mxCell>
        <mxCell id="glbEuImwPsWrHvxgKssv-28" value="" style="sketch=0;points=[[0,0,0],[0.25,0,0],[0.5,0,0],[0.75,0,0],[1,0,0],[0,1,0],[0.25,1,0],[0.5,1,0],[0.75,1,0],[1,1,0],[0,0.25,0],[0,0.5,0],[0,0.75,0],[1,0.25,0],[1,0.5,0],[1,0.75,0]];outlineConnect=0;fontColor=#232F3E;gradientColor=#945DF2;gradientDirection=north;fillColor=#5A30B5;strokeColor=#ffffff;dashed=0;verticalLabelPosition=bottom;verticalAlign=top;align=center;html=1;fontSize=12;fontStyle=0;aspect=fixed;shape=mxgraph.aws4.resourceIcon;resIcon=mxgraph.aws4.glue;" vertex="1" parent="1">
          <mxGeometry x="230" y="460" width="78" height="78" as="geometry" />
        </mxCell>
      </root>
    </mxGraphModel>
  </diagram>
</mxfile>
